<svg xmlns="http://www.w3.org/2000/svg" xmlns:xlink="http://www.w3.org/1999/xlink" version="1.1" x="0px" y="0px" viewBox="0 0 100 125" enable-background="new 0 0 100 100" xml:space="preserve"><g><g><path d="M21.431,10.834c2.968-0.629,4.851-3.535,4.225-6.497c-0.632-2.958-3.542-4.852-6.501-4.214    c-2.958,0.625-4.847,3.532-4.219,6.488C15.571,9.577,18.473,11.462,21.431,10.834z"/><path d="M34.354,31.046c0.089-0.086,0.168-0.178,0.248-0.271l6.218-3.379l8.542,4.909l2.885-5.021l-9.948-5.715    c-0.87-0.5-1.939-0.513-2.825-0.034l-5.203,2.83c-0.295-0.274-0.619-0.53-0.991-0.727c-0.022-0.011-2.272-1.212-4.761-3.7    c-1.937-1.938-2.504-4.12-2.542-4.269l6.091-1.467c0.559-0.135,1.054-0.478,1.375-0.96l5.564-8.277L35.163,2.38l-5.06,7.528    l-8.701,2.097c-0.289,0.003-0.578,0.027-0.867,0.086c-0.848,0.171-1.581,0.575-2.178,1.113L9.483,18.56    c-0.349,0.211-0.635,0.513-0.832,0.871l-5.638,10.29l4.066,2.224l5.333-9.74l4.968-3c0.616,1.765,1.923,4.625,4.59,7.287    c2.74,2.742,5.266,4.358,6.422,5.028l3.066,8.917c0.114,0.329,0.286,0.637,0.511,0.903l8.346,10.088l4.459-3.692l-8.009-9.683    L34.354,31.046z"/><polygon points="58.771,18.243 56.711,18.211 55.948,22.703 48.025,47.154 46.042,51.114 47.724,52.314 51.133,48.714     59.38,23.272   "/><path d="M62.145,25.047c-1.161-0.378-2.412,0.265-2.79,1.419c-0.378,1.168,0.261,2.416,1.422,2.793    c1.165,0.378,2.413-0.265,2.791-1.427C63.948,26.67,63.307,25.424,62.145,25.047z"/><path d="M55.533,45.448c-1.165-0.379-2.416,0.261-2.791,1.421c-0.377,1.163,0.261,2.412,1.423,2.792    c1.161,0.376,2.412-0.262,2.79-1.423C57.329,47.073,56.694,45.824,55.533,45.448z"/></g><path d="M72.595,29.615c-1.68,37.228-32.248,66.92-69.825,67.199V100H97.23V29.615H72.595z"/></g><text x="0" y="115" fill="#000000" font-size="5px" font-weight="bold" font-family="'Helvetica Neue', Helvetica, Arial-Unicode, Arial, Sans-serif">Created by Juan Pablo Bravo</text><text x="0" y="120" fill="#000000" font-size="5px" font-weight="bold" font-family="'Helvetica Neue', Helvetica, Arial-Unicode, Arial, Sans-serif">from the Noun Project</text></svg>